<svg width="252" height="60" viewBox="0 0 252 60" fill="none" xmlns="http://www.w3.org/2000/svg">
<g clip-path="url(#clip0_7_928)">
<path d="M82.9052 41.8365C81.1252 41.8365 79.3789 41.6014 77.7333 41.0976C76.0877 40.6275 74.7108 39.9558 73.6025 39.1162L75.2817 35.3884C77.5654 36.9669 80.1177 37.7729 82.9723 37.7729C84.45 37.7729 85.5919 37.5378 86.3979 37.034C87.1703 36.5639 87.5733 35.8922 87.5733 35.0526C87.5733 34.2802 87.2039 33.7093 86.4986 33.2727C85.7598 32.8361 84.45 32.4331 82.6029 32.0301C80.5207 31.5935 78.8752 31.0898 77.6326 30.4852C76.39 29.8807 75.4832 29.1419 74.9123 28.2352C74.3414 27.362 74.0391 26.2873 74.0391 24.9776C74.0391 23.5335 74.4421 22.2573 75.2481 21.149C76.0206 20.0408 77.1288 19.134 78.5729 18.4959C80.017 17.8579 81.6626 17.5556 83.5433 17.5556C85.2224 17.5556 86.8344 17.7907 88.4129 18.2944C89.9577 18.7982 91.2003 19.4363 92.1071 20.2759L90.4279 24.0036C88.2449 22.4252 85.9613 21.6192 83.5768 21.6192C82.1999 21.6192 81.1252 21.8879 80.3528 22.3916C79.5804 22.929 79.1774 23.6678 79.1774 24.5746C79.1774 25.1119 79.3453 25.5485 79.6476 25.8843C79.9498 26.2537 80.4536 26.556 81.1588 26.8246C81.8305 27.0933 82.838 27.362 84.1478 27.6642C87.2039 28.3359 89.3868 29.2091 90.7301 30.2502C92.0399 31.2913 92.7116 32.7689 92.7116 34.616C92.7116 36.8661 91.8384 38.6125 90.1256 39.8886C88.4129 41.1984 85.9949 41.8365 82.9052 41.8365Z" fill="#313131"/>
<path d="M104.835 38.0769C105.339 38.0769 105.876 38.0434 106.447 37.9762L106.178 41.6704C105.54 41.7711 104.869 41.8047 104.23 41.8047C101.712 41.8047 99.8982 41.2674 98.7563 40.1591C97.5809 39.0509 97.01 37.4053 97.01 35.1552V28.8415H93.8867V25.0465H97.01V20.2105H102.081V25.0465H106.212V28.8415H102.081V35.1216C102.081 37.103 102.988 38.0769 104.835 38.0769Z" fill="#313131"/>
<path d="M123.585 34.2435H112.838C113.006 35.5533 113.443 36.5272 114.148 37.0981C114.82 37.7026 115.827 38.0049 117.137 38.0049C117.977 38.0049 118.85 37.8705 119.689 37.6018C120.495 37.2996 121.268 36.8966 121.973 36.3928L123.316 39.7848C122.51 40.4229 121.536 40.893 120.395 41.2625C119.219 41.6319 118.077 41.7998 116.902 41.7998C114.114 41.7998 111.931 41.0274 110.353 39.4825C108.741 37.9713 107.935 35.8891 107.935 33.236C107.935 31.5568 108.271 30.0791 108.976 28.7694C109.681 27.4596 110.622 26.4521 111.864 25.7469C113.107 25.008 114.484 24.6386 116.062 24.6386C118.38 24.6386 120.193 25.3774 121.57 26.8887C122.913 28.4 123.585 30.415 123.585 33.0009V34.2435ZM116.197 28.1313C115.223 28.1313 114.484 28.4335 113.913 29.0381C113.342 29.6761 112.973 30.5493 112.838 31.7247H119.32C119.253 30.5493 118.95 29.6426 118.413 29.0381C117.909 28.4335 117.171 28.1313 116.197 28.1313Z" fill="#313131"/>
<path d="M131.703 17.8593H126.632V41.5357H131.703V17.8593Z" fill="#313131"/>
<path d="M140.618 17.8593H135.547V41.5357H140.618V17.8593Z" fill="#313131"/>
<path d="M161.229 25.0416V41.5311H156.191V39.0795C155.688 39.9191 155.016 40.5908 154.109 41.061C153.202 41.5647 152.161 41.7998 151.02 41.7998C149.575 41.7998 148.333 41.464 147.225 40.7587C146.116 40.0534 145.277 39.0795 144.672 37.7698C144.034 36.4936 143.732 35.0159 143.732 33.3032C143.732 31.5904 144.034 30.0791 144.672 28.7694C145.277 27.4596 146.15 26.4521 147.258 25.7469C148.366 25.008 149.609 24.6386 151.02 24.6386C152.161 24.6386 153.202 24.8737 154.109 25.3439C155.016 25.8476 155.688 26.5193 156.191 27.3589V25.0416H161.229ZM152.497 37.9377C153.673 37.9377 154.613 37.5347 155.251 36.7287C155.889 35.9227 156.191 34.7473 156.191 33.236C156.191 31.7247 155.889 30.5493 155.251 29.7097C154.613 28.9037 153.673 28.5007 152.497 28.5007C151.322 28.5007 150.381 28.9037 149.743 29.7769C149.105 30.5829 148.769 31.7919 148.769 33.3032C148.769 34.8144 149.105 35.9563 149.743 36.7623C150.381 37.5347 151.322 37.9377 152.497 37.9377Z" fill="#313131"/>
<path d="M176.906 28.8071L174.051 29.1094C172.641 29.2437 171.633 29.6467 171.062 30.2848C170.492 30.9565 170.189 31.8296 170.189 32.9379V41.5353H165.118V25.0458H169.988V27.8332C170.827 25.9189 172.54 24.8779 175.126 24.7099L176.604 24.6092L176.906 28.8071Z" fill="#313131"/>
<path d="M196.654 41.8365C194.874 41.8365 193.128 41.6014 191.482 41.0976C189.837 40.6275 188.46 39.9558 187.352 39.1162L189.031 35.3884C191.314 36.9669 193.867 37.7729 196.721 37.7729C198.199 37.7729 199.341 37.5378 200.147 37.034C200.919 36.5639 201.322 35.8922 201.322 35.0526C201.322 34.2802 200.953 33.7093 200.248 33.2727C199.509 32.8361 198.199 32.4331 196.352 32.0301C194.27 31.5935 192.624 31.0898 191.382 30.4852C190.139 29.8807 189.232 29.1419 188.661 28.2352C188.09 27.362 187.788 26.2873 187.788 24.9776C187.788 23.5335 188.191 22.2573 188.997 21.149C189.77 20.0408 190.878 19.134 192.322 18.4959C193.766 17.8579 195.412 17.5556 197.292 17.5556C198.971 17.5556 200.583 17.7907 202.162 18.2944C203.707 18.7982 204.949 19.4363 205.856 20.2759L204.177 24.0036C201.994 22.4252 199.71 21.6192 197.326 21.6192C195.949 21.6192 194.874 21.8879 194.102 22.3916C193.329 22.929 192.926 23.6678 192.926 24.5746C192.926 25.1119 193.094 25.5485 193.397 25.8843C193.699 26.2537 194.203 26.556 194.908 26.8246C195.58 27.0933 196.587 27.362 197.897 27.6642C200.953 28.3359 203.136 29.2091 204.479 30.2502C205.789 31.2913 206.461 32.7689 206.461 34.616C206.461 36.8661 205.587 38.6125 203.875 39.8886C202.162 41.1984 199.744 41.8365 196.654 41.8365Z" fill="#313131"/>
<path d="M217.102 41.7998C215.356 41.7998 213.811 41.4304 212.501 40.7251C211.191 40.0199 210.15 39.0459 209.445 37.7362C208.74 36.46 208.37 34.9488 208.37 33.2024C208.37 31.4561 208.74 29.9448 209.445 28.635C210.15 27.3589 211.191 26.385 212.501 25.6797C213.811 24.9744 215.356 24.6386 217.102 24.6386C218.848 24.6386 220.393 24.9744 221.703 25.6797C223.013 26.385 224.054 27.3589 224.759 28.635C225.464 29.9448 225.834 31.4561 225.834 33.2024C225.834 34.9488 225.464 36.46 224.759 37.7362C224.054 39.0459 223.013 40.0199 221.703 40.7251C220.393 41.4304 218.848 41.7998 217.102 41.7998ZM217.102 37.9377C219.554 37.9377 220.796 36.3593 220.796 33.2024C220.796 31.624 220.494 30.415 219.856 29.6426C219.218 28.8701 218.277 28.4671 217.102 28.4671C214.65 28.4671 213.408 30.0456 213.408 33.2024C213.408 36.3593 214.65 37.9377 217.102 37.9377Z" fill="#313131"/>
<path d="M241.682 25.0429V20.2105H246.738V25.0429H250.878V28.8354H246.738V35.1155C246.738 37.0933 247.656 38.072 249.511 38.072C250.021 38.072 250.551 38.0516 251.122 37.9701L250.837 41.681C250.205 41.7626 249.552 41.8034 248.9 41.8034C246.392 41.8034 244.557 41.2529 243.415 40.1518C242.253 39.0711 241.682 37.3992 241.682 35.1563V28.8354H235.137V41.5383H230.06V28.8354H226.94V25.0429H230.06C230.1 22.7185 230.773 20.965 232.099 19.8027C233.404 18.6201 235.402 17.9473 238.093 17.8045L239.928 17.7026L240.234 21.4135L238.664 21.4951C237.359 21.5359 236.442 21.7805 235.911 22.2087C235.381 22.6573 235.137 23.371 235.137 24.3701V25.0429H241.682Z" fill="#313131"/>
<path fill-rule="evenodd" clip-rule="evenodd" d="M12.5587 59.3995C12.3667 59.5001 12.132 59.497 11.9431 59.3843C11.7541 59.2745 11.6352 59.0734 11.6292 58.854C11.553 52.6763 12.0345 19.9259 29.9641 0.612634C30.3267 0.222529 30.8327 0 31.3629 0C31.8932 0.00304769 32.4022 0.222529 32.7619 0.612634C50.6335 19.938 51.1638 52.6702 51.0967 58.8509C51.0907 59.0703 50.9748 59.2715 50.7828 59.3843C50.5939 59.494 50.3623 59.5001 50.1672 59.3965C46.7568 57.6045 34.7611 51.2988 31.9542 49.8237C31.5854 49.6286 31.1435 49.6286 30.7747 49.8237C27.9648 51.2988 15.9691 57.6075 12.5587 59.3995ZM31.366 25.0125C34.6971 25.0125 37.3974 27.7127 37.3974 31.0469C37.3974 34.378 34.6971 37.0783 31.366 37.0783C28.0318 37.0783 25.3316 34.378 25.3316 31.0469C25.3316 27.7127 28.0318 25.0125 31.366 25.0125Z" fill="#313131"/>
<path d="M12.9336 20.3952C13.153 20.3648 13.3725 20.4501 13.5127 20.6207C13.6528 20.7914 13.6955 21.0231 13.6224 21.2334C12.5191 24.4334 11.5042 27.9839 10.6417 31.9093C10.5929 32.1349 10.4253 32.3177 10.2028 32.3817C9.98338 32.4488 9.74261 32.3909 9.57803 32.2293C7.82866 30.5226 3.70213 26.5027 1.29141 24.153C0.943974 23.8147 0.818971 23.3088 0.968308 22.8516C1.11764 22.3914 1.51693 22.0562 1.99542 21.9861C5.23206 21.5168 10.6692 20.7244 12.9336 20.3952Z" fill="#313131"/>
<path d="M60.7335 21.9861C61.212 22.0562 61.6113 22.3914 61.7606 22.8516C61.91 23.3088 61.785 23.8147 61.4376 24.153C59.0269 26.5027 54.9033 30.5227 53.1539 32.2264C52.9894 32.3879 52.7486 32.4488 52.5292 32.3817C52.3067 32.3147 52.139 32.1349 52.0903 31.9093C51.2278 27.9839 50.2129 24.4334 49.1097 21.2334C49.0365 21.0261 49.0792 20.7914 49.2194 20.6207C49.3596 20.4501 49.579 20.3647 49.7984 20.3982C52.0629 20.7274 57.4999 21.5168 60.7335 21.9861Z" fill="#313131"/>
</g>
<defs>
<clipPath id="clip0_7_928">
<rect width="252" height="60" fill="white"/>
</clipPath>
</defs>
</svg>
